<?xml version="1.0" encoding="UTF-8" standalone="no"?>
<!DOCTYPE svg PUBLIC "-//W3C//DTD SVG 1.1//EN"
 "http://www.w3.org/Graphics/SVG/1.1/DTD/svg11.dtd">
<!-- Generated by graphviz version 2.43.0 (0)
 -->
<!-- Title: G Pages: 1 -->
<svg width="1713pt" height="743pt"
 viewBox="0.00 0.00 1713.28 742.94" xmlns="http://www.w3.org/2000/svg" xmlns:xlink="http://www.w3.org/1999/xlink">
<g id="graph0" class="graph" transform="scale(1 1) rotate(0) translate(4 738.94)">
<title>G</title>
<polygon fill="white" stroke="transparent" points="-4,4 -4,-738.94 1709.28,-738.94 1709.28,4 -4,4"/>
<g id="clust1" class="cluster">
<title>cluster_vcs</title>
<polygon fill="none" stroke="gray" points="1232.2,-489.94 1232.2,-726.94 1685.28,-726.94 1685.28,-489.94 1232.2,-489.94"/>
<text text-anchor="middle" x="1458.74" y="-711.74" font-family="Times,serif" font-size="14.00">vcs.wake</text>
</g>
<g id="clust2" class="cluster">
<title>cluster_vcs_sim</title>
<polygon fill="none" stroke="gray" points="8,-298.94 8,-481.94 1476.99,-481.94 1476.99,-298.94 8,-298.94"/>
<text text-anchor="middle" x="742.5" y="-466.74" font-family="Times,serif" font-size="14.00">vcs&#45;sim.wake</text>
</g>
<g id="clust7" class="cluster">
<title>cluster_dut_simulator</title>
<polygon fill="none" stroke="gray" points="670.15,-20.94 670.15,-277.94 1697.28,-277.94 1697.28,-20.94 670.15,-20.94"/>
<text text-anchor="middle" x="1183.71" y="-262.74" font-family="Times,serif" font-size="14.00">dut&#45;simulator.wake</text>
</g>
<g id="clust13" class="cluster">
<title>cluster_top</title>
<polygon fill="none" stroke="gray" points="374.17,-166.94 374.17,-241.94 531.86,-241.94 531.86,-166.94 374.17,-166.94"/>
<text text-anchor="middle" x="453.01" y="-226.74" font-family="Times,serif" font-size="14.00">top.wake</text>
</g>
<!-- VCSCompilePlan -->
<g id="node1" class="node">
<title>VCSCompilePlan</title>
<polygon fill="none" stroke="black" points="1667.78,-695.94 1553.78,-695.94 1553.78,-659.94 1667.78,-659.94 1667.78,-695.94"/>
<text text-anchor="middle" x="1610.78" y="-674.24" font-family="Times,serif" font-size="14.00">VCSCompilePlan</text>
</g>
<!-- VCSExecutePlan -->
<g id="node2" class="node">
<title>VCSExecutePlan</title>
<polygon fill="none" stroke="black" points="1665.78,-587.94 1555.78,-587.94 1555.78,-551.94 1665.78,-551.94 1665.78,-587.94"/>
<text text-anchor="middle" x="1610.78" y="-566.24" font-family="Times,serif" font-size="14.00">VCSExecutePlan</text>
</g>
<!-- VCSCompileOutputs -->
<g id="node3" class="node">
<title>VCSCompileOutputs</title>
<polygon fill="none" stroke="black" points="1677.28,-641.94 1544.28,-641.94 1544.28,-605.94 1677.28,-605.94 1677.28,-641.94"/>
<text text-anchor="middle" x="1610.78" y="-620.24" font-family="Times,serif" font-size="14.00">VCSCompileOutputs</text>
</g>
<!-- VCSExecuteOutputs -->
<g id="node4" class="node">
<title>VCSExecuteOutputs</title>
<polygon fill="none" stroke="black" points="1675.28,-533.94 1546.28,-533.94 1546.28,-497.94 1675.28,-497.94 1675.28,-533.94"/>
<text text-anchor="middle" x="1610.78" y="-512.24" font-family="Times,serif" font-size="14.00">VCSExecuteOutputs</text>
</g>
<!-- makeVCSCompilePlan -->
<g id="node5" class="node">
<title>makeVCSCompilePlan</title>
<ellipse fill="none" stroke="black" cx="1358.49" cy="-677.94" rx="118.08" ry="18"/>
<text text-anchor="middle" x="1358.49" y="-674.24" font-family="Times,serif" font-size="14.00">global makeVCSCompilePlan</text>
</g>
<!-- makeVCSCompilePlan&#45;&gt;VCSCompilePlan -->
<g id="edge1" class="edge">
<title>makeVCSCompilePlan&#45;&gt;VCSCompilePlan</title>
<path fill="none" stroke="black" d="M1476.94,-677.94C1499.76,-677.94 1522.92,-677.94 1543.37,-677.94"/>
<polygon fill="black" stroke="black" points="1543.49,-681.44 1553.49,-677.94 1543.49,-674.44 1543.49,-681.44"/>
</g>
<!-- makeVCSExecutePlan -->
<g id="node6" class="node">
<title>makeVCSExecutePlan</title>
<ellipse fill="none" stroke="black" cx="1358.49" cy="-569.94" rx="115.88" ry="18"/>
<text text-anchor="middle" x="1358.49" y="-566.24" font-family="Times,serif" font-size="14.00">global makeVCSExecutePlan</text>
</g>
<!-- makeVCSExecutePlan&#45;&gt;VCSExecutePlan -->
<g id="edge2" class="edge">
<title>makeVCSExecutePlan&#45;&gt;VCSExecutePlan</title>
<path fill="none" stroke="black" d="M1474.38,-569.94C1498.79,-569.94 1523.72,-569.94 1545.43,-569.94"/>
<polygon fill="black" stroke="black" points="1545.48,-573.44 1555.48,-569.94 1545.48,-566.44 1545.48,-573.44"/>
</g>
<!-- doVCSCompile -->
<g id="node7" class="node">
<title>doVCSCompile</title>
<ellipse fill="none" stroke="black" cx="1358.49" cy="-623.94" rx="91.78" ry="18"/>
<text text-anchor="middle" x="1358.49" y="-620.24" font-family="Times,serif" font-size="14.00">global doVCSCompile</text>
</g>
<!-- doVCSCompile&#45;&gt;VCSCompilePlan -->
<g id="edge3" class="edge">
<title>doVCSCompile&#45;&gt;VCSCompilePlan</title>
<path fill="none" stroke="black" d="M1425,-636.34C1447.62,-640.76 1473.1,-645.9 1496.28,-650.94 1511.62,-654.28 1528.08,-658.07 1543.57,-661.73"/>
<polygon fill="black" stroke="black" points="1543.05,-665.21 1553.59,-664.12 1544.67,-658.4 1543.05,-665.21"/>
</g>
<!-- doVCSCompile&#45;&gt;VCSCompileOutputs -->
<g id="edge4" class="edge">
<title>doVCSCompile&#45;&gt;VCSCompileOutputs</title>
<path fill="none" stroke="black" d="M1450.21,-623.94C1477.63,-623.94 1507.43,-623.94 1533.79,-623.94"/>
<polygon fill="black" stroke="black" points="1534.08,-627.44 1544.08,-623.94 1534.08,-620.44 1534.08,-627.44"/>
</g>
<!-- doVCSExecute -->
<g id="node8" class="node">
<title>doVCSExecute</title>
<ellipse fill="none" stroke="black" cx="1358.49" cy="-515.94" rx="89.08" ry="18"/>
<text text-anchor="middle" x="1358.49" y="-512.24" font-family="Times,serif" font-size="14.00">global doVCSExecute</text>
</g>
<!-- doVCSExecute&#45;&gt;VCSExecutePlan -->
<g id="edge5" class="edge">
<title>doVCSExecute&#45;&gt;VCSExecutePlan</title>
<path fill="none" stroke="black" d="M1424.31,-528.2C1447.1,-532.65 1472.87,-537.84 1496.28,-542.94 1512.34,-546.43 1529.63,-550.43 1545.75,-554.25"/>
<polygon fill="black" stroke="black" points="1545.07,-557.69 1555.61,-556.6 1546.7,-550.88 1545.07,-557.69"/>
</g>
<!-- doVCSExecute&#45;&gt;VCSExecuteOutputs -->
<g id="edge6" class="edge">
<title>doVCSExecute&#45;&gt;VCSExecuteOutputs</title>
<path fill="none" stroke="black" d="M1447.74,-515.94C1476.44,-515.94 1507.99,-515.94 1535.56,-515.94"/>
<polygon fill="black" stroke="black" points="1535.92,-519.44 1545.92,-515.94 1535.92,-512.44 1535.92,-519.44"/>
</g>
<!-- VCSDUTSimulatorPlan -->
<g id="node9" class="node">
<title>VCSDUTSimulatorPlan</title>
<polygon fill="none" stroke="black" points="1135.72,-450.94 986.72,-450.94 986.72,-414.94 1135.72,-414.94 1135.72,-450.94"/>
<text text-anchor="middle" x="1061.22" y="-429.24" font-family="Times,serif" font-size="14.00">VCSDUTSimulatorPlan</text>
</g>
<!-- PrivateVCSDUTSimCompileOptions -->
<g id="node10" class="node">
<title>PrivateVCSDUTSimCompileOptions</title>
<polygon fill="none" stroke="black" points="1468.99,-396.94 1247.99,-396.94 1247.99,-360.94 1468.99,-360.94 1468.99,-396.94"/>
<text text-anchor="middle" x="1358.49" y="-375.24" font-family="Times,serif" font-size="14.00">PrivateVCSDUTSimCompileOptions</text>
</g>
<!-- DUTSimCompileOptions -->
<g id="node20" class="node">
<title>DUTSimCompileOptions</title>
<polygon fill="none" stroke="black" points="1689.28,-246.94 1532.28,-246.94 1532.28,-210.94 1689.28,-210.94 1689.28,-246.94"/>
<text text-anchor="middle" x="1610.78" y="-225.24" font-family="Times,serif" font-size="14.00">DUTSimCompileOptions</text>
</g>
<!-- PrivateVCSDUTSimCompileOptions&#45;&gt;DUTSimCompileOptions -->
<g id="edge38" class="edge">
<title>PrivateVCSDUTSimCompileOptions&#45;&gt;DUTSimCompileOptions</title>
<path fill="none" stroke="black" d="M1469.26,-363.81C1478.68,-360.58 1487.83,-356.67 1496.28,-351.94 1538.1,-328.53 1573.15,-284.23 1592.79,-255.67"/>
<polygon fill="black" stroke="black" points="1595.71,-257.61 1598.38,-247.36 1589.9,-253.7 1595.71,-257.61"/>
</g>
<!-- PrivateVCSDUTSimExecuteOptions -->
<g id="node11" class="node">
<title>PrivateVCSDUTSimExecuteOptions</title>
<polygon fill="none" stroke="black" points="1467.49,-342.94 1249.49,-342.94 1249.49,-306.94 1467.49,-306.94 1467.49,-342.94"/>
<text text-anchor="middle" x="1358.49" y="-321.24" font-family="Times,serif" font-size="14.00">PrivateVCSDUTSimExecuteOptions</text>
</g>
<!-- DUTSimExecuteOptions -->
<g id="node21" class="node">
<title>DUTSimExecuteOptions</title>
<polygon fill="none" stroke="black" points="1687.28,-192.94 1534.28,-192.94 1534.28,-156.94 1687.28,-156.94 1687.28,-192.94"/>
<text text-anchor="middle" x="1610.78" y="-171.24" font-family="Times,serif" font-size="14.00">DUTSimExecuteOptions</text>
</g>
<!-- PrivateVCSDUTSimExecuteOptions&#45;&gt;DUTSimExecuteOptions -->
<g id="edge39" class="edge">
<title>PrivateVCSDUTSimExecuteOptions&#45;&gt;DUTSimExecuteOptions</title>
<path fill="none" stroke="black" d="M1453.75,-306.93C1469.18,-300.87 1484.09,-292.77 1496.28,-281.94 1525.43,-256.05 1503.53,-228.28 1532.28,-201.94 1533.43,-200.89 1534.62,-199.87 1535.85,-198.9"/>
<polygon fill="black" stroke="black" points="1538.17,-201.56 1544.45,-193.03 1534.22,-195.78 1538.17,-201.56"/>
</g>
<!-- freedomVCSDUTSimulator -->
<g id="node12" class="node">
<title>freedomVCSDUTSimulator</title>
<ellipse fill="none" stroke="black" cx="150.54" cy="-378.94" rx="110.48" ry="18"/>
<text text-anchor="middle" x="150.54" y="-375.24" font-family="Times,serif" font-size="14.00">freedomVCSDUTSimulator</text>
</g>
<!-- makeFreedomVCSDUTSimulator -->
<g id="node14" class="node">
<title>makeFreedomVCSDUTSimulator</title>
<ellipse fill="none" stroke="black" cx="453.01" cy="-378.94" rx="131.88" ry="18"/>
<text text-anchor="middle" x="453.01" y="-375.24" font-family="Times,serif" font-size="14.00">makeFreedomVCSDUTSimulator</text>
</g>
<!-- freedomVCSDUTSimulator&#45;&gt;makeFreedomVCSDUTSimulator -->
<g id="edge18" class="edge">
<title>freedomVCSDUTSimulator&#45;&gt;makeFreedomVCSDUTSimulator</title>
<path fill="none" stroke="black" d="M261.29,-378.94C277.33,-378.94 294.03,-378.94 310.58,-378.94"/>
<polygon fill="black" stroke="black" points="310.87,-382.44 320.87,-378.94 310.87,-375.44 310.87,-382.44"/>
</g>
<!-- dutSimulators -->
<g id="node27" class="node">
<title>dutSimulators</title>
<ellipse fill="none" stroke="black" cx="1061.22" cy="-46.94" rx="104.78" ry="18"/>
<text text-anchor="middle" x="1061.22" y="-43.24" font-family="Times,serif" font-size="14.00">global topic dutSimulators</text>
</g>
<!-- freedomVCSDUTSimulator&#45;&gt;dutSimulators -->
<g id="edge45" class="edge">
<title>freedomVCSDUTSimulator&#45;&gt;dutSimulators</title>
<path fill="none" stroke="black" d="M252.98,-372C264.96,-367.47 276.1,-361.02 285.08,-351.94 345.2,-291.13 259.64,-222.41 321.08,-162.94 408.31,-78.5 762.27,-55.52 946.9,-49.27"/>
<polygon fill="black" stroke="black" points="947.04,-52.77 956.92,-48.95 946.81,-45.78 947.04,-52.77"/>
</g>
<!-- freedomVCSWavesDUTSimulator -->
<g id="node13" class="node">
<title>freedomVCSWavesDUTSimulator</title>
<ellipse fill="none" stroke="black" cx="150.54" cy="-324.94" rx="134.58" ry="18"/>
<text text-anchor="middle" x="150.54" y="-321.24" font-family="Times,serif" font-size="14.00">freedomVCSWavesDUTSimulator</text>
</g>
<!-- freedomVCSWavesDUTSimulator&#45;&gt;makeFreedomVCSDUTSimulator -->
<g id="edge19" class="edge">
<title>freedomVCSWavesDUTSimulator&#45;&gt;makeFreedomVCSDUTSimulator</title>
<path fill="none" stroke="black" d="M231.67,-339.34C271.9,-346.57 320.78,-355.35 362.27,-362.81"/>
<polygon fill="black" stroke="black" points="361.91,-366.3 372.37,-364.63 363.15,-359.41 361.91,-366.3"/>
</g>
<!-- freedomVCSWavesDUTSimulator&#45;&gt;dutSimulators -->
<g id="edge46" class="edge">
<title>freedomVCSWavesDUTSimulator&#45;&gt;dutSimulators</title>
<path fill="none" stroke="black" d="M157.65,-306.88C174.71,-259.62 227.84,-132.45 321.08,-80.94 538.41,39.14 848.92,-2.73 988.01,-30.44"/>
<polygon fill="black" stroke="black" points="987.63,-33.94 998.12,-32.49 989.02,-27.08 987.63,-33.94"/>
</g>
<!-- makeVCSDUTSimulator -->
<g id="node15" class="node">
<title>makeVCSDUTSimulator</title>
<ellipse fill="none" stroke="black" cx="761.34" cy="-378.94" rx="124.58" ry="18"/>
<text text-anchor="middle" x="761.34" y="-375.24" font-family="Times,serif" font-size="14.00">global makeVCSDUTSimulator</text>
</g>
<!-- makeFreedomVCSDUTSimulator&#45;&gt;makeVCSDUTSimulator -->
<g id="edge15" class="edge">
<title>makeFreedomVCSDUTSimulator&#45;&gt;makeVCSDUTSimulator</title>
<path fill="none" stroke="black" d="M585.26,-378.94C598.72,-378.94 612.4,-378.94 625.89,-378.94"/>
<polygon fill="black" stroke="black" points="626.17,-382.44 636.17,-378.94 626.17,-375.44 626.17,-382.44"/>
</g>
<!-- makeVCSDUTSimulatorPlan -->
<g id="node16" class="node">
<title>makeVCSDUTSimulatorPlan</title>
<ellipse fill="none" stroke="black" cx="761.34" cy="-432.94" rx="140.28" ry="18"/>
<text text-anchor="middle" x="761.34" y="-429.24" font-family="Times,serif" font-size="14.00">global makeVCSDUTSimulatorPlan</text>
</g>
<!-- makeFreedomVCSDUTSimulator&#45;&gt;makeVCSDUTSimulatorPlan -->
<g id="edge16" class="edge">
<title>makeFreedomVCSDUTSimulator&#45;&gt;makeVCSDUTSimulatorPlan</title>
<path fill="none" stroke="black" d="M534.5,-393.13C575.44,-400.34 625.41,-409.15 667.92,-416.65"/>
<polygon fill="black" stroke="black" points="667.54,-420.13 678,-418.42 668.76,-413.24 667.54,-420.13"/>
</g>
<!-- vcsCompileOptsExtract -->
<g id="node19" class="node">
<title>vcsCompileOptsExtract</title>
<ellipse fill="none" stroke="black" cx="761.34" cy="-324.94" rx="94.78" ry="18"/>
<text text-anchor="middle" x="761.34" y="-321.24" font-family="Times,serif" font-size="14.00">vcsCompileOptsExtract</text>
</g>
<!-- makeFreedomVCSDUTSimulator&#45;&gt;vcsCompileOptsExtract -->
<g id="edge17" class="edge">
<title>makeFreedomVCSDUTSimulator&#45;&gt;vcsCompileOptsExtract</title>
<path fill="none" stroke="black" d="M534.5,-364.75C579.82,-356.76 636.19,-346.82 681.28,-338.88"/>
<polygon fill="black" stroke="black" points="682.06,-342.29 691.3,-337.11 680.85,-335.4 682.06,-342.29"/>
</g>
<!-- makeVCSDUTSimulator&#45;&gt;VCSDUTSimulatorPlan -->
<g id="edge12" class="edge">
<title>makeVCSDUTSimulator&#45;&gt;VCSDUTSimulatorPlan</title>
<path fill="none" stroke="black" d="M839.83,-392.99C881.89,-400.61 933.91,-410.04 976.85,-417.83"/>
<polygon fill="black" stroke="black" points="976.24,-421.27 986.71,-419.61 977.49,-414.39 976.24,-421.27"/>
</g>
<!-- toVCSSimCompilePlan -->
<g id="node17" class="node">
<title>toVCSSimCompilePlan</title>
<ellipse fill="none" stroke="black" cx="1061.22" cy="-378.94" rx="95.58" ry="18"/>
<text text-anchor="middle" x="1061.22" y="-375.24" font-family="Times,serif" font-size="14.00">toVCSSimCompilePlan</text>
</g>
<!-- makeVCSDUTSimulator&#45;&gt;toVCSSimCompilePlan -->
<g id="edge13" class="edge">
<title>makeVCSDUTSimulator&#45;&gt;toVCSSimCompilePlan</title>
<path fill="none" stroke="black" d="M886.51,-378.94C909.35,-378.94 932.99,-378.94 955.2,-378.94"/>
<polygon fill="black" stroke="black" points="955.3,-382.44 965.3,-378.94 955.3,-375.44 955.3,-382.44"/>
</g>
<!-- toVCSSimExecutePlan -->
<g id="node18" class="node">
<title>toVCSSimExecutePlan</title>
<ellipse fill="none" stroke="black" cx="1061.22" cy="-324.94" rx="92.88" ry="18"/>
<text text-anchor="middle" x="1061.22" y="-321.24" font-family="Times,serif" font-size="14.00">toVCSSimExecutePlan</text>
</g>
<!-- makeVCSDUTSimulator&#45;&gt;toVCSSimExecutePlan -->
<g id="edge14" class="edge">
<title>makeVCSDUTSimulator&#45;&gt;toVCSSimExecutePlan</title>
<path fill="none" stroke="black" d="M839.83,-364.89C883.81,-356.92 938.68,-346.97 982.67,-339"/>
<polygon fill="black" stroke="black" points="983.52,-342.4 992.74,-337.17 982.27,-335.51 983.52,-342.4"/>
</g>
<!-- DUTSimulator -->
<g id="node23" class="node">
<title>DUTSimulator</title>
<polygon fill="none" stroke="black" points="1407.49,-138.94 1309.49,-138.94 1309.49,-102.94 1407.49,-102.94 1407.49,-138.94"/>
<text text-anchor="middle" x="1358.49" y="-117.24" font-family="Times,serif" font-size="14.00">DUTSimulator</text>
</g>
<!-- makeVCSDUTSimulator&#45;&gt;DUTSimulator -->
<g id="edge42" class="edge">
<title>makeVCSDUTSimulator&#45;&gt;DUTSimulator</title>
<path fill="none" stroke="black" d="M865.04,-368.81C878.04,-364.78 890.65,-359.31 901.73,-351.94 925.74,-335.96 913.56,-313.69 937.73,-297.94 1031.07,-237.1 1100.16,-327.51 1184.71,-254.94 1222.78,-222.26 1183,-181.04 1220.71,-147.94 1242,-129.25 1272.41,-122 1299.16,-119.64"/>
<polygon fill="black" stroke="black" points="1299.46,-123.13 1309.2,-118.97 1298.99,-116.15 1299.46,-123.13"/>
</g>
<!-- makeDUTSimulator -->
<g id="node28" class="node">
<title>makeDUTSimulator</title>
<ellipse fill="none" stroke="black" cx="1061.22" cy="-120.94" rx="107.78" ry="18"/>
<text text-anchor="middle" x="1061.22" y="-117.24" font-family="Times,serif" font-size="14.00">global makeDUTSimulator</text>
</g>
<!-- makeVCSDUTSimulator&#45;&gt;makeDUTSimulator -->
<g id="edge44" class="edge">
<title>makeVCSDUTSimulator&#45;&gt;makeDUTSimulator</title>
<path fill="none" stroke="black" d="M872.96,-370.7C883.64,-366.21 893.53,-360.12 901.73,-351.94 960.71,-293.07 884.12,-231.74 937.73,-167.94 948.87,-154.67 964.21,-145.14 980.27,-138.3"/>
<polygon fill="black" stroke="black" points="981.74,-141.48 989.77,-134.57 979.19,-134.96 981.74,-141.48"/>
</g>
<!-- makeDUTSimulatorPlan -->
<g id="node29" class="node">
<title>makeDUTSimulatorPlan</title>
<ellipse fill="none" stroke="black" cx="1061.22" cy="-194.94" rx="123.48" ry="18"/>
<text text-anchor="middle" x="1061.22" y="-191.24" font-family="Times,serif" font-size="14.00">global makeDUTSimulatorPlan</text>
</g>
<!-- makeVCSDUTSimulator&#45;&gt;makeDUTSimulatorPlan -->
<g id="edge43" class="edge">
<title>makeVCSDUTSimulator&#45;&gt;makeDUTSimulatorPlan</title>
<path fill="none" stroke="black" d="M869.31,-369.77C881.05,-365.52 892.18,-359.74 901.73,-351.94 934.14,-325.47 910.07,-296.34 937.73,-264.94 956.3,-243.84 982.84,-227.59 1006.47,-216.08"/>
<polygon fill="black" stroke="black" points="1008.14,-219.17 1015.7,-211.75 1005.16,-212.83 1008.14,-219.17"/>
</g>
<!-- makeVCSDUTSimulatorPlan&#45;&gt;VCSDUTSimulatorPlan -->
<g id="edge11" class="edge">
<title>makeVCSDUTSimulatorPlan&#45;&gt;VCSDUTSimulatorPlan</title>
<path fill="none" stroke="black" d="M902.12,-432.94C927.53,-432.94 953.3,-432.94 976.46,-432.94"/>
<polygon fill="black" stroke="black" points="976.55,-436.44 986.55,-432.94 976.55,-429.44 976.55,-436.44"/>
</g>
<!-- toVCSSimCompilePlan&#45;&gt;makeVCSCompilePlan -->
<g id="edge7" class="edge">
<title>toVCSSimCompilePlan&#45;&gt;makeVCSCompilePlan</title>
<path fill="none" stroke="black" d="M1151.4,-385.15C1163.96,-389.6 1175.65,-396.22 1184.71,-405.94 1259.72,-486.48 1144.81,-571.23 1220.71,-650.94 1226.64,-657.18 1233.57,-662.2 1241.11,-666.23"/>
<polygon fill="black" stroke="black" points="1239.66,-669.42 1250.2,-670.52 1242.65,-663.09 1239.66,-669.42"/>
</g>
<!-- toVCSSimCompilePlan&#45;&gt;PrivateVCSDUTSimCompileOptions -->
<g id="edge8" class="edge">
<title>toVCSSimCompilePlan&#45;&gt;PrivateVCSDUTSimCompileOptions</title>
<path fill="none" stroke="black" d="M1156.86,-378.94C1182.59,-378.94 1210.79,-378.94 1237.71,-378.94"/>
<polygon fill="black" stroke="black" points="1237.96,-382.44 1247.96,-378.94 1237.96,-375.44 1237.96,-382.44"/>
</g>
<!-- toVCSSimExecutePlan&#45;&gt;makeVCSExecutePlan -->
<g id="edge9" class="edge">
<title>toVCSSimExecutePlan&#45;&gt;makeVCSExecutePlan</title>
<path fill="none" stroke="black" d="M1149.19,-330.84C1162.5,-335.24 1175,-341.93 1184.71,-351.94 1244.84,-413.95 1159.89,-481.59 1220.71,-542.94 1227.08,-549.37 1234.52,-554.5 1242.57,-558.57"/>
<polygon fill="black" stroke="black" points="1241.33,-561.85 1251.89,-562.72 1244.18,-555.46 1241.33,-561.85"/>
</g>
<!-- toVCSSimExecutePlan&#45;&gt;PrivateVCSDUTSimExecuteOptions -->
<g id="edge10" class="edge">
<title>toVCSSimExecutePlan&#45;&gt;PrivateVCSDUTSimExecuteOptions</title>
<path fill="none" stroke="black" d="M1154.43,-324.94C1181.26,-324.94 1210.94,-324.94 1239.13,-324.94"/>
<polygon fill="black" stroke="black" points="1239.45,-328.44 1249.45,-324.94 1239.45,-321.44 1239.45,-328.44"/>
</g>
<!-- DUTSimulationOptions -->
<g id="node22" class="node">
<title>DUTSimulationOptions</title>
<polygon fill="none" stroke="black" points="1431.99,-246.94 1284.99,-246.94 1284.99,-210.94 1431.99,-210.94 1431.99,-246.94"/>
<text text-anchor="middle" x="1358.49" y="-225.24" font-family="Times,serif" font-size="14.00">DUTSimulationOptions</text>
</g>
<!-- DUTSimulationOptions&#45;&gt;DUTSimCompileOptions -->
<g id="edge28" class="edge">
<title>DUTSimulationOptions&#45;&gt;DUTSimCompileOptions</title>
<path fill="none" stroke="black" d="M1432.22,-228.94C1460.24,-228.94 1492.53,-228.94 1521.84,-228.94"/>
<polygon fill="black" stroke="black" points="1522.06,-232.44 1532.06,-228.94 1522.06,-225.44 1522.06,-232.44"/>
</g>
<!-- DUTSimulationOptions&#45;&gt;DUTSimExecuteOptions -->
<g id="edge29" class="edge">
<title>DUTSimulationOptions&#45;&gt;DUTSimExecuteOptions</title>
<path fill="none" stroke="black" d="M1432.01,-215.17C1452.8,-211.07 1475.47,-206.47 1496.28,-201.94 1505.86,-199.86 1515.86,-197.6 1525.8,-195.3"/>
<polygon fill="black" stroke="black" points="1526.75,-198.67 1535.7,-193 1525.16,-191.86 1526.75,-198.67"/>
</g>
<!-- DUTSimulator&#45;&gt;DUTSimCompileOptions -->
<g id="edge24" class="edge">
<title>DUTSimulator&#45;&gt;DUTSimCompileOptions</title>
<path fill="none" stroke="black" d="M1407.59,-121.45C1435.52,-123.82 1470.21,-130.53 1496.28,-147.94 1520.27,-163.96 1509.48,-184.28 1532.28,-201.94 1533.89,-203.18 1535.55,-204.37 1537.27,-205.51"/>
<polygon fill="black" stroke="black" points="1535.81,-208.71 1546.21,-210.76 1539.36,-202.68 1535.81,-208.71"/>
</g>
<!-- DUTSimulator&#45;&gt;DUTSimExecuteOptions -->
<g id="edge25" class="edge">
<title>DUTSimulator&#45;&gt;DUTSimExecuteOptions</title>
<path fill="none" stroke="black" d="M1407.7,-129.98C1433.94,-135.02 1466.95,-141.56 1496.28,-147.94 1505.86,-150.02 1515.86,-152.28 1525.8,-154.58"/>
<polygon fill="black" stroke="black" points="1525.16,-158.02 1535.7,-156.88 1526.75,-151.2 1525.16,-158.02"/>
</g>
<!-- UserSimulationOptions -->
<g id="node25" class="node">
<title>UserSimulationOptions</title>
<polygon fill="none" stroke="black" points="1683.28,-84.94 1538.28,-84.94 1538.28,-48.94 1683.28,-48.94 1683.28,-84.94"/>
<text text-anchor="middle" x="1610.78" y="-63.24" font-family="Times,serif" font-size="14.00">UserSimulationOptions</text>
</g>
<!-- DUTSimulator&#45;&gt;UserSimulationOptions -->
<g id="edge26" class="edge">
<title>DUTSimulator&#45;&gt;UserSimulationOptions</title>
<path fill="none" stroke="black" d="M1407.7,-111.9C1433.94,-106.85 1466.95,-100.32 1496.28,-93.94 1506.66,-91.68 1517.55,-89.21 1528.31,-86.72"/>
<polygon fill="black" stroke="black" points="1529.19,-90.11 1538.13,-84.43 1527.6,-83.29 1529.19,-90.11"/>
</g>
<!-- SimulationOutput -->
<g id="node26" class="node">
<title>SimulationOutput</title>
<polygon fill="none" stroke="black" points="1667.78,-138.94 1553.78,-138.94 1553.78,-102.94 1667.78,-102.94 1667.78,-138.94"/>
<text text-anchor="middle" x="1610.78" y="-117.24" font-family="Times,serif" font-size="14.00">SimulationOutput</text>
</g>
<!-- DUTSimulator&#45;&gt;SimulationOutput -->
<g id="edge27" class="edge">
<title>DUTSimulator&#45;&gt;SimulationOutput</title>
<path fill="none" stroke="black" d="M1407.75,-120.94C1446.28,-120.94 1500.69,-120.94 1543.34,-120.94"/>
<polygon fill="black" stroke="black" points="1543.36,-124.44 1553.36,-120.94 1543.36,-117.44 1543.36,-124.44"/>
</g>
<!-- DUTSimulatorPlan -->
<g id="node24" class="node">
<title>DUTSimulatorPlan</title>
<polygon fill="none" stroke="black" points="1419.49,-192.94 1297.49,-192.94 1297.49,-156.94 1419.49,-156.94 1419.49,-192.94"/>
<text text-anchor="middle" x="1358.49" y="-171.24" font-family="Times,serif" font-size="14.00">DUTSimulatorPlan</text>
</g>
<!-- DUTSimulatorPlan&#45;&gt;DUTSimCompileOptions -->
<g id="edge20" class="edge">
<title>DUTSimulatorPlan&#45;&gt;DUTSimCompileOptions</title>
<path fill="none" stroke="black" d="M1419.52,-186.27C1443.45,-190.92 1471.21,-196.48 1496.28,-201.94 1505.86,-204.02 1515.86,-206.28 1525.8,-208.58"/>
<polygon fill="black" stroke="black" points="1525.16,-212.02 1535.7,-210.88 1526.75,-205.2 1525.16,-212.02"/>
</g>
<!-- DUTSimulatorPlan&#45;&gt;DUTSimExecuteOptions -->
<g id="edge21" class="edge">
<title>DUTSimulatorPlan&#45;&gt;DUTSimExecuteOptions</title>
<path fill="none" stroke="black" d="M1419.76,-174.94C1450.96,-174.94 1489.6,-174.94 1523.87,-174.94"/>
<polygon fill="black" stroke="black" points="1523.88,-178.44 1533.88,-174.94 1523.88,-171.44 1523.88,-178.44"/>
</g>
<!-- DUTSimulatorPlan&#45;&gt;UserSimulationOptions -->
<g id="edge22" class="edge">
<title>DUTSimulatorPlan&#45;&gt;UserSimulationOptions</title>
<path fill="none" stroke="black" d="M1419.59,-173.17C1445,-169.98 1473.84,-162.93 1496.28,-147.94 1520.27,-131.92 1509.48,-111.6 1532.28,-93.94 1533.89,-92.7 1535.55,-91.51 1537.27,-90.37"/>
<polygon fill="black" stroke="black" points="1539.36,-93.2 1546.21,-85.12 1535.81,-87.17 1539.36,-93.2"/>
</g>
<!-- DUTSimulatorPlan&#45;&gt;SimulationOutput -->
<g id="edge23" class="edge">
<title>DUTSimulatorPlan&#45;&gt;SimulationOutput</title>
<path fill="none" stroke="black" d="M1419.52,-163.61C1443.45,-158.96 1471.21,-153.39 1496.28,-147.94 1511.62,-144.6 1528.08,-140.81 1543.57,-137.14"/>
<polygon fill="black" stroke="black" points="1544.67,-140.48 1553.59,-134.76 1543.05,-133.67 1544.67,-140.48"/>
</g>
<!-- dutSimulators&#45;&gt;DUTSimulator -->
<g id="edge30" class="edge">
<title>dutSimulators&#45;&gt;DUTSimulator</title>
<path fill="none" stroke="black" d="M1111.5,-62.85C1142.62,-72.57 1183.78,-84.84 1220.71,-93.94 1246.42,-100.28 1275.15,-106.13 1299.61,-110.75"/>
<polygon fill="black" stroke="black" points="1298.99,-114.2 1309.46,-112.59 1300.27,-107.32 1298.99,-114.2"/>
</g>
<!-- makeDUTSimulator&#45;&gt;DUTSimulator -->
<g id="edge31" class="edge">
<title>makeDUTSimulator&#45;&gt;DUTSimulator</title>
<path fill="none" stroke="black" d="M1169.24,-120.94C1213.14,-120.94 1262.23,-120.94 1299.28,-120.94"/>
<polygon fill="black" stroke="black" points="1299.39,-124.44 1309.39,-120.94 1299.39,-117.44 1299.39,-124.44"/>
</g>
<!-- makeDUTSimulator&#45;&gt;DUTSimulatorPlan -->
<g id="edge32" class="edge">
<title>makeDUTSimulator&#45;&gt;DUTSimulatorPlan</title>
<path fill="none" stroke="black" d="M1134.83,-134.22C1181.28,-142.71 1241.23,-153.68 1287.22,-162.09"/>
<polygon fill="black" stroke="black" points="1286.64,-165.54 1297.11,-163.9 1287.9,-158.65 1286.64,-165.54"/>
</g>
<!-- makeDUTSimulatorPlan&#45;&gt;DUTSimulatorPlan -->
<g id="edge33" class="edge">
<title>makeDUTSimulatorPlan&#45;&gt;DUTSimulatorPlan</title>
<path fill="none" stroke="black" d="M1173.43,-187.41C1211.5,-184.83 1253.03,-182.01 1286.98,-179.71"/>
<polygon fill="black" stroke="black" points="1287.52,-183.19 1297.27,-179.02 1287.05,-176.2 1287.52,-183.19"/>
</g>
<!-- makeUserSimulationOptions -->
<g id="node30" class="node">
<title>makeUserSimulationOptions</title>
<ellipse fill="none" stroke="black" cx="1358.49" cy="-66.94" rx="137.58" ry="18"/>
<text text-anchor="middle" x="1358.49" y="-63.24" font-family="Times,serif" font-size="14.00">global makeUserSimulationOptions</text>
</g>
<!-- makeUserSimulationOptions&#45;&gt;UserSimulationOptions -->
<g id="edge34" class="edge">
<title>makeUserSimulationOptions&#45;&gt;UserSimulationOptions</title>
<path fill="none" stroke="black" d="M1496.35,-66.94C1507.14,-66.94 1517.81,-66.94 1528.03,-66.94"/>
<polygon fill="black" stroke="black" points="1528.1,-70.44 1538.1,-66.94 1528.1,-63.44 1528.1,-70.44"/>
</g>
<!-- simulateDUT -->
<g id="node31" class="node">
<title>simulateDUT</title>
<ellipse fill="none" stroke="black" cx="761.34" cy="-144.94" rx="83.39" ry="18"/>
<text text-anchor="middle" x="761.34" y="-141.24" font-family="Times,serif" font-size="14.00">global simulateDUT</text>
</g>
<!-- simulateDUT&#45;&gt;DUTSimulationOptions -->
<g id="edge35" class="edge">
<title>simulateDUT&#45;&gt;DUTSimulationOptions</title>
<path fill="none" stroke="black" d="M844.36,-146.38C958.41,-148.84 1154.38,-154.92 1184.71,-167.94 1204.93,-176.62 1201.14,-191.86 1220.71,-201.94 1237.3,-210.49 1256.32,-216.34 1274.79,-220.34"/>
<polygon fill="black" stroke="black" points="1274.18,-223.79 1284.67,-222.32 1275.56,-216.93 1274.18,-223.79"/>
</g>
<!-- simulateDUT&#45;&gt;UserSimulationOptions -->
<g id="edge36" class="edge">
<title>simulateDUT&#45;&gt;UserSimulationOptions</title>
<path fill="none" stroke="black" d="M819.84,-132.03C845.19,-125.85 875.19,-117.84 901.73,-108.94 918.16,-103.42 920.88,-98.02 937.73,-93.94 1044.76,-68 1084.1,-118.73 1184.71,-73.94 1204.81,-64.99 1200.26,-48.07 1220.71,-39.94 1334.52,5.31 1374.64,-25.67 1496.28,-39.94 1509.11,-41.44 1522.58,-43.87 1535.59,-46.67"/>
<polygon fill="black" stroke="black" points="1534.9,-50.11 1545.43,-48.88 1536.43,-43.28 1534.9,-50.11"/>
</g>
<!-- simulateDUT&#45;&gt;dutSimulators -->
<g id="edge37" class="edge">
<title>simulateDUT&#45;&gt;dutSimulators</title>
<path fill="none" stroke="black" d="M828.35,-134.16C852.31,-128.65 879.04,-120.57 901.73,-108.94 920.26,-99.44 919.21,-88.47 937.73,-78.94 950.51,-72.36 964.76,-67.06 978.89,-62.8"/>
<polygon fill="black" stroke="black" points="979.97,-66.13 988.63,-60.02 978.05,-59.4 979.97,-66.13"/>
</g>
<!-- singleSimOutput -->
<g id="node32" class="node">
<title>singleSimOutput</title>
<ellipse fill="none" stroke="black" cx="453.01" cy="-192.94" rx="70.69" ry="18"/>
<text text-anchor="middle" x="453.01" y="-189.24" font-family="Times,serif" font-size="14.00">singleSimOutput</text>
</g>
<!-- singleSimOutput&#45;&gt;makeUserSimulationOptions -->
<g id="edge40" class="edge">
<title>singleSimOutput&#45;&gt;makeUserSimulationOptions</title>
<path fill="none" stroke="black" d="M518.32,-200.08C686.91,-218.17 1132.34,-261.61 1184.71,-221.94 1231.81,-186.25 1177.3,-134.04 1220.71,-93.94 1225.72,-89.3 1231.3,-85.36 1237.24,-82.02"/>
<polygon fill="black" stroke="black" points="1238.82,-85.14 1246.2,-77.54 1235.69,-78.88 1238.82,-85.14"/>
</g>
<!-- singleSimOutput&#45;&gt;simulateDUT -->
<g id="edge41" class="edge">
<title>singleSimOutput&#45;&gt;simulateDUT</title>
<path fill="none" stroke="black" d="M513.8,-183.57C562.3,-175.97 631,-165.21 683.56,-156.97"/>
<polygon fill="black" stroke="black" points="684.18,-160.42 693.52,-155.41 683.1,-153.5 684.18,-160.42"/>
</g>
</g>
</svg>
